<?xml version="1.0" encoding="UTF-8"?>
<svg xmlns="http://www.w3.org/2000/svg" viewBox="0 0 414.01 231.24">
  <defs>
    <style>
      .cls-1, .cls-2, .cls-3 {
        stroke: #000;
      }

      .cls-1, .cls-2, .cls-3, .cls-4 {
        stroke-miterlimit: 10;
      }

      .cls-1, .cls-3, .cls-4 {
        stroke-width: .25px;
      }

      .cls-2 {
        fill: none;
      }

      .cls-2, .cls-3 {
        stroke-linecap: round;
      }

      .cls-4 {
        fill: #fff;
        stroke: #fff;
      }

      .cls-5 {
        fill: #ffe01b;
      }
    </style>
  </defs>
  <rect class="cls-5" width="414.01" height="231.24"/>
  <g id="_レイヤー_1のコピー" data-name="レイヤー 1のコピー">
    <ellipse class="cls-4" cx="97.91" cy="111.14" rx="3.43" ry="5.21"/>
    <ellipse class="cls-4" cx="73.42" cy="111.14" rx="3.68" ry="5.21"/>
    <line class="cls-2" x1="74.58" y1="163.8" x2="71.75" y2="165.66"/>
    <line class="cls-2" x1="77.37" y1="165.66" x2="74.58" y2="163.8"/>
    <line class="cls-2" x1="92.09" y1="165.66" x2="95.03" y2="163.59"/>
    <line class="cls-2" x1="98.18" y1="165.66" x2="95.03" y2="163.59"/>
    <g>
      <path class="cls-1" d="M158.44,95.04c-6.02-3.12-25.2,1.95-25.2,1.95,7.11-4.34,10.54-8.08,2.36-7.59-8.18.49-17.42,5.73-16.24,4.77,1.18-.95,12.43-11.53,1.52-9.31-10.91,2.21-19.9,15.39-19.9,15.39-10.98-2.71-28.37-.61-28.37-.61-4.29-10.73-14.76-14.72-24.24-15.57-10.48-.94-23.6,5.78-15.18,7.84,9.87,2.41,12.34,4.84,12.34,4.84-26.55,6.99-26.81,19.29-21.3,16.37,5.51-2.92,17.12-2.55,16.94-2.43-8.53,5.59-16.89,14.11-20.12,20.5-2.76,5.45-2.43,9.48,1.44,6.28,11.19-9.25,20.5-11.78,20.5-11.78-7.64,4.94-9.99,14.31-3.06,10.92,7.92-3.88,18.64-4.23,17.25-4.01-3.73.6-13.5,11.06-7.04,10.98,11.39-.13,21.19,0,24.62,4.7,10.75,14.7,18.11,2.06,19.92.25.11-.11,27.33-8.41,31.95-10.31,1.5-.62,3.64-3.09-.6-3.62-1.84-.23-5.58-.4-5.58-.4,2.13-1.37,13.69-6.02,19.44-8.1,5.75-2.09,3.61-4.93,1.35-5.58s-7.83-.76-7.83-.76c1.42-1.19,11.85-5.95,17.83-7.98,5.99-2.03,3.25-4.93,1.41-5.46-1.84-.53-8.66-.99-8.66-.99,0,0,1.66-1.37,8.3-3.69,3.98-1.39,11.85-3.64,6.15-6.59ZM26.34,110.58c10.63-8.03,23.31-4.86,23.31-4.86l-6.13,3.62c-6.33-.83-17.18,1.24-17.18,1.24ZM44.81,123.46c-9.17,1.39-21.59,10.79-21.59,10.79,5.4-13.24,22.15-20.49,22.15-20.49l-5.31,5.85c2.63-1.12,11.33-1.43,11.33-1.43-1.05.48-6.58,5.28-6.58,5.28ZM108.69,116.5c-7.55,22.1-10.08,24.13-14.23,30.66-5.52,8.67-13.38,9.87-19.35,0-5.97-9.87-10.7-17.03-13.32-30.22-2.62-13.19,3.53-15.05,10.5-16.15,0,0,14.94-2.71,28.37.36,11.9,2.71,9.25,11.79,8.03,15.37ZM136.92,121.86c6.96.25,2.54,2.11,1.69,2.42-4.06,1.5-21.06,7.89-21.06,7.89l11.68-8.17h-2.21l3.68-2.4s3.99.17,6.22.25ZM145.53,107.3c8.44-.25,7.17,2.46,3.64,3.28-10.51,2.44-20.02,9.29-20.02,9.29l-5.84.49,11.1-8.35-2.37.16,3.31-2.75c-3.9-.1-9.91.91-9.91.91,13.15-11.2,28.39-11.29,28.39-11.29-9.22,2.71-16.22,8.29-16.22,8.29,0,0,4.8.05,7.9-.05Z"/>
      <path class="cls-1" d="M73.19,105.1c-5.81,0-5.54,12.09.3,12.08,5.2,0,6.13-12.08-.3-12.08ZM73.47,116.35c-5.03,0-5.26-10.41-.26-10.41,5.54,0,4.73,10.4.26,10.41Z"/>
      <path class="cls-1" d="M97.78,105.1c-5.68,0-5.42,12.09.29,12.08,5.08,0,6-12.08-.29-12.08ZM98.05,116.35c-4.92,0-5.15-10.41-.25-10.41,5.42,0,4.63,10.4.25,10.41Z"/>
      <ellipse class="cls-1" cx="72.09" cy="111.25" rx="2.35" ry="3.41"/>
      <ellipse class="cls-1" cx="99" cy="111.25" rx="2.35" ry="3.41"/>
      <path class="cls-1" d="M85.19,117.19c-4.59,0-8.87,3-8.99,7.97-.19,7.77,3.48,15.38,6.07,19.72,1.59,2.66,4.19,2.52,5.91-.07,0,0,5.29-7.07,6.27-19.5.34-4.28-3.1-8.12-9.27-8.12ZM77.1,124.78s1.15-6.77,8.41-6.74c7.87.03,7.97,6.78,7.97,6.78-5.41-3.16-11.56-2.82-16.38-.04Z"/>
      <line class="cls-2" x1="74.56" y1="147.56" x2="74.68" y2="166.59"/>
      <line class="cls-2" x1="95.13" y1="147.82" x2="95.17" y2="166.39"/>
      <path class="cls-3" d="M84.83,99.05c.61-9.37,3.69-18.54,7.62-24.76,1.76-2.79,2.84-2.34,2.77-.47-.03.79-.22,1.81-.4,2.78,0,0,4.59-9.35,8.58-11.47,3.31-1.76,3.24,1.71,2.21,3.12-1.45,1.99-17.15,22.45-18.09,30.8,0,0-2.7,0-2.7,0Z"/>
    </g>
    <g>
      <path class="cls-3" d="M197.75,102.9h-27.72c-2.36,0-4.28,1.92-4.28,4.28v2.41c0,2.36,1.92,4.28,4.28,4.28h7.76v29.07c0,2.12,1.72,3.83,3.83,3.83h4.14c2.12,0,3.83-1.72,3.83-3.83v-29.07h8.16c2.36,0,4.28-1.92,4.28-4.28v-2.41c0-2.37-1.92-4.28-4.28-4.28Z"/>
      <path class="cls-3" d="M245.24,140.88c-2.47-4.74-9.21-11.18-9.21-11.18,0,0,8.15-2.29,8.28-12.44.1-7.93-6.43-14.36-13.73-14.36h-16.73c-2.87,0-4.69,1.82-4.69,4.06v35.52c0,2.37,1.93,4.3,4.3,4.3h3.48c2.37,0,4.3-1.93,4.3-4.3v-11.19l2.89-.02,9.44,13.68s1.36,1.84,3.77,1.84c3,0,3.84-.23,5.01-.4,1.92-.28,4.19-3.01,2.9-5.5ZM221.43,112.98h6.68c2.52,0,4.57,2.05,4.57,4.57v.18c0,2.52-2.05,4.57-4.57,4.57h-6.68v-9.32Z"/>
      <rect class="cls-3" x="253.45" y="102.9" width="12.21" height="43.88" rx="2.7" ry="2.7"/>
      <path class="cls-3" d="M294.05,102.9h-15.76c-1.92,0-3.48,1.56-3.48,3.48v37c0,1.88,1.52,3.4,3.4,3.4h4.4c1.88,0,3.4-1.52,3.4-3.4v-10.54h7.93c8.13,0,14.73-6.59,14.73-14.73v-.59c0-8.07-6.54-14.62-14.62-14.62ZM296.57,118.25c0,2.75-2.23,4.97-4.97,4.97h-5.27v-10.24h5.27c2.75,0,4.97,2.23,4.97,4.97v.3Z"/>
      <path class="cls-3" d="M334.58,102.9h-15.76c-1.92,0-3.48,1.56-3.48,3.48v37c0,1.88,1.52,3.4,3.4,3.4h4.4c1.88,0,3.4-1.52,3.4-3.4v-10.54h7.93c8.13,0,14.73-6.59,14.73-14.73v-.59c0-8.07-6.54-14.62-14.62-14.62ZM337.1,118.25c0,2.75-2.23,4.97-4.97,4.97h-5.27v-10.24h5.27c2.75,0,4.97,2.23,4.97,4.97v.3Z"/>
      <path class="cls-3" d="M394.68,142.48c-3.24-8.92-15.99-36.24-15.99-36.24,0,0-1.37-3.34-5.95-3.34-4.96,0-6.82,3.03-6.82,3.03,0,0-7.33,15.08-16.4,36.51-.8,1.9.81,3.19,1.44,3.66,1.31.96,5.22,1.15,6.78.68,1.05-.32,2.49-.88,3.23-1.69.94-1.03,2.62-5.58,2.62-5.58l16.93.22s1.57,4.43,2.54,5.3c.22.2.88,1.41,2.25,1.75,2.07.52,4.94.38,5.84,0,1.49-.63,4.12-2.7,3.53-4.3ZM366.3,129.92l5.65-12.09,5.01,12.16-10.65-.07Z"/>
    </g>
  </g>
</svg>